<svg xmlns="http://www.w3.org/2000/svg" width="53" height="30.877" viewBox="0 0 53 30.877">
  <g id="Grupo_2166" data-name="Grupo 2166" transform="translate(-896 -5325)">
    <g id="Grupo_2156" data-name="Grupo 2156" transform="translate(896 5325)">
      <path id="Caminho_762" data-name="Caminho 762" d="M245.883,95.1a8.528,8.528,0,1,1-8.573,8.573A8.493,8.493,0,0,1,245.883,95.1Zm0,1.805a6.723,6.723,0,1,0,6.678,6.768A6.7,6.7,0,0,0,245.883,96.907Z" transform="translate(-219.338 -95.102)" fill="#09949f"/>
      <path id="Caminho_763" data-name="Caminho 763" d="M184,351.213a.868.868,0,1,1-1.714-.271,12.8,12.8,0,0,1,25.448,0,.918.918,0,0,1-.812.993.8.8,0,0,1-.993-.722,11.029,11.029,0,0,0-21.928,0Z" transform="translate(-168.462 -321.072)" fill="#09949f"/>
      <path id="Caminho_764" data-name="Caminho 764" d="M490.743,191.7a6.633,6.633,0,1,1-6.588,6.588,6.644,6.644,0,0,1,6.588-6.588Zm0,1.8a4.828,4.828,0,1,0,4.873,4.783A4.815,4.815,0,0,0,490.743,193.5Z" transform="translate(-447.503 -184.39)" fill="#09949f"/>
      <path id="Caminho_765" data-name="Caminho 765" d="M507.233,381.624a.913.913,0,0,1-1.263-.361,1.038,1.038,0,0,1,.451-1.263,10.646,10.646,0,0,1,4.422-1.083,9.894,9.894,0,0,1,9.746,8.392.846.846,0,0,1-.722.993.936.936,0,0,1-1.083-.722,7.979,7.979,0,0,0-7.941-6.858,8.213,8.213,0,0,0-3.61.9Z" transform="translate(-467.603 -357.439)" fill="#09949f"/>
      <path id="Caminho_766" data-name="Caminho 766" d="M47.222,191.7a6.633,6.633,0,1,1-6.678,6.588,6.625,6.625,0,0,1,6.678-6.588Zm0,1.8A4.828,4.828,0,1,0,52,198.288,4.834,4.834,0,0,0,47.222,193.5Z" transform="translate(-37.462 -184.39)" fill="#09949f"/>
      <path id="Caminho_767" data-name="Caminho 767" d="M1.637,387.585a.894.894,0,0,1-.993.722.853.853,0,0,1-.812-.993,9.894,9.894,0,0,1,9.746-8.392A11.414,11.414,0,0,1,14.091,380a1.116,1.116,0,0,1,.361,1.263.913.913,0,0,1-1.263.361,8.213,8.213,0,0,0-3.61-.9,7.979,7.979,0,0,0-7.941,6.858Z" transform="translate(0.182 -357.444)" fill="#09949f"/>
    </g>
  </g>
</svg>
