<svg xmlns="http://www.w3.org/2000/svg" width="44.338" height="45.127" viewBox="0 0 44.338 45.127">
  <g id="Grupo_2167" data-name="Grupo 2167" transform="translate(-681 -5319)">
    <g id="Grupo_2158" data-name="Grupo 2158" transform="translate(681 5316)">
      <path id="Caminho_806" data-name="Caminho 806" d="M202.743,283.928a.778.778,0,0,0,1.1,1.1l.55-.55a.824.824,0,0,0,.239-.55.727.727,0,0,0-.239-.55.765.765,0,0,0-1.1,0Z" transform="translate(-191.571 -258.696)" fill="#09949f"/>
      <path id="Caminho_807" data-name="Caminho 807" d="M228.783,311.07a.765.765,0,0,0,1.1,0l.55-.55a.824.824,0,0,0,.239-.55.727.727,0,0,0-.239-.55.765.765,0,0,0-1.1,0l-.55.55a.766.766,0,0,0,0,1.1Z" transform="translate(-215.386 -282.512)" fill="#09949f"/>
      <path id="Caminho_808" data-name="Caminho 808" d="M248.1,329.288a.778.778,0,1,0,1.1,1.1l.55-.55a.824.824,0,0,0,.239-.55.727.727,0,0,0-.239-.55.765.765,0,0,0-1.1,0Z" transform="translate(-233.055 -300.18)" fill="#09949f"/>
      <path id="Caminho_809" data-name="Caminho 809" d="M280.586,362.87a.765.765,0,0,0,1.1,0l.55-.55a.824.824,0,0,0,.239-.55.727.727,0,0,0-.239-.55.765.765,0,0,0-1.1,0l-.55.55A.766.766,0,0,0,280.586,362.87Z" transform="translate(-262.763 -329.886)" fill="#09949f"/>
      <path id="Caminho_810" data-name="Caminho 810" d="M300.183,382.47a.765.765,0,0,0,1.1,0l.55-.55a.824.824,0,0,0,.239-.55.727.727,0,0,0-.239-.55.765.765,0,0,0-1.1,0l-.55.55A.766.766,0,0,0,300.183,382.47Z" transform="translate(-280.685 -347.811)" fill="#09949f"/>
      <path id="Caminho_811" data-name="Caminho 811" d="M321.433,401.241a.825.825,0,0,0,.239-.55.727.727,0,0,0-.239-.55.765.765,0,0,0-1.1,0l-.55.55a.778.778,0,0,0,1.1,1.1Z" transform="translate(-298.61 -365.482)" fill="#09949f"/>
      <path id="Caminho_812" data-name="Caminho 812" d="M119.863,266.772a.765.765,0,0,0,1.1,0l6.651-6.651a.824.824,0,0,0,.239-.55.727.727,0,0,0-.239-.55.765.765,0,0,0-1.1,0l-6.651,6.651a.766.766,0,0,0,0,1.1Z" transform="translate(-115.772 -236.419)" fill="#09949f"/>
      <path id="Caminho_813" data-name="Caminho 813" d="M143.888,317.263a.765.765,0,0,0-1.1,0l-3.326,3.326a.778.778,0,1,0,1.1,1.1l3.326-3.326a.824.824,0,0,0,.239-.55A.894.894,0,0,0,143.888,317.263Z" transform="translate(-133.697 -289.686)" fill="#09949f"/>
      <path id="Caminho_814" data-name="Caminho 814" d="M165.223,347.724a.765.765,0,0,0,1.1,0l3.326-3.326a.824.824,0,0,0,.239-.55.727.727,0,0,0-.239-.55.766.766,0,0,0-1.1,0l-3.326,3.326A.766.766,0,0,0,165.223,347.724Z" transform="translate(-157.256 -313.497)" fill="#09949f"/>
      <path id="Caminho_815" data-name="Caminho 815" d="M189.248,362.623a.765.765,0,0,0-1.1,0l-3.326,3.326a.778.778,0,0,0,1.1,1.1l3.326-3.326a.824.824,0,0,0,.239-.55A.957.957,0,0,0,189.248,362.623Z" transform="translate(-175.181 -331.17)" fill="#09949f"/>
      <path id="Caminho_816" data-name="Caminho 816" d="M221.728,395.1a.765.765,0,0,0-1.1,0l-3.326,3.326a.778.778,0,0,0,1.1,1.1l3.326-3.326a.824.824,0,0,0,.239-.55A.893.893,0,0,0,221.728,395.1Z" transform="translate(-204.886 -360.875)" fill="#09949f"/>
      <path id="Caminho_817" data-name="Caminho 817" d="M241.048,414.423a.766.766,0,0,0-1.1,0l-3.326,3.326a.778.778,0,0,0,1.1,1.1l3.326-3.326a.824.824,0,0,0,.239-.55A.766.766,0,0,0,241.048,414.423Z" transform="translate(-222.555 -378.544)" fill="#09949f"/>
      <path id="Caminho_818" data-name="Caminho 818" d="M260.648,434.023a.765.765,0,0,0-1.1,0l-3.326,3.326a.778.778,0,1,0,1.1,1.1l3.326-3.326a.824.824,0,0,0,.239-.55A.957.957,0,0,0,260.648,434.023Z" transform="translate(-240.48 -396.47)" fill="#09949f"/>
      <path id="Caminho_819" data-name="Caminho 819" d="M278.9,424.43a.778.778,0,0,0,1.1,1.1l6.651-6.651a.824.824,0,0,0,.239-.55.727.727,0,0,0-.239-.55.765.765,0,0,0-1.1,0Z" transform="translate(-261.224 -381.614)" fill="#09949f"/>
      <path id="Caminho_820" data-name="Caminho 820" d="M117.593,24.208V5.26l.976-.952a.846.846,0,0,0-1.2-1.2l-.952.952H98.239L75.3,27.2a2.773,2.773,0,0,0,0,3.924L91.349,47.175a2.732,2.732,0,0,0,1.962.813,2.694,2.694,0,0,0,1.962-.813ZM92.449,46.05,76.4,30a1.184,1.184,0,0,1,0-1.7L98.884,5.619h15.957l-5.407,5.407-1.268-1.268a.837.837,0,0,0-1.2,0l-3.732,3.756a.837.837,0,0,0,0,1.2l3.732,3.732a.837.837,0,0,0,1.2,0L111.9,14.71a.837.837,0,0,0,0-1.2l-1.268-1.268,5.407-5.407V23.562L94.147,46.05a1.184,1.184,0,0,1-1.7,0Zm14.522-31.34a.837.837,0,0,0,1.2,0l1.268-1.268.67.67-2.56,2.56-2.56-2.56,2.56-2.56.67.67-1.268,1.268a.942.942,0,0,0,.024,1.22Z" transform="translate(-74.482 0.139)" fill="#09949f"/>
    </g>
  </g>
</svg>
