<svg xmlns="http://www.w3.org/2000/svg" width="40.244" height="48.628" viewBox="0 0 40.244 48.628">
  <g id="Grupo_2165" data-name="Grupo 2165" transform="translate(-1111 -5316)">
    <g id="Grupo_2159" data-name="Grupo 2159" transform="translate(240.656 -420.156)">
      <path id="Caminho_854" data-name="Caminho 854" d="M164.584,63.308c4.024-6.959,9.81-17.942,9.81-23.14a14.257,14.257,0,0,0-28.506,0c0,5.282,5.785,16.182,9.81,23.14-8.049.419-15.678,2.348-15.678,5.7,0,3.857,10.145,5.869,20.122,5.869s20.122-2.012,20.122-5.869c0-3.354-7.629-5.282-15.678-5.7ZM160.14,27.927a12.384,12.384,0,0,1,12.576,12.241c0,5.114-6.372,16.853-10.312,23.56q-1.383,2.389-2.264,3.773c-.5-.838-1.341-2.18-2.264-3.773-3.941-6.707-10.312-18.445-10.312-23.56a12.384,12.384,0,0,1,12.576-12.241Zm0,45.274c-11.235,0-18.445-2.515-18.445-4.192,0-1.425,5.366-3.605,15.007-4.108,1.509,2.6,2.6,4.276,2.767,4.527a.855.855,0,0,0,.671.419.747.747,0,0,0,.671-.419c.168-.252,1.258-2.012,2.767-4.527,9.641.5,15.007,2.683,15.007,4.108,0,1.677-7.21,4.192-18.445,4.192Z" transform="translate(730.324 5709.906)" fill="#09949f"/>
      <path id="Exclusão_6" data-name="Exclusão 6" d="M7.932,15.864A7.932,7.932,0,0,1,7.932,0a7.932,7.932,0,0,1,5.61,13.541A7.882,7.882,0,0,1,7.932,15.864Zm0-14.422a6.49,6.49,0,1,0,6.49,6.49A6.5,6.5,0,0,0,7.932,1.442Z" transform="translate(882.377 5742.187)" fill="#09949f"/>
    </g>
  </g>
</svg>
