<svg id="Grupo_2463" data-name="Grupo 2463" xmlns="http://www.w3.org/2000/svg" width="43.095" height="43.121" viewBox="0 0 43.095 43.121">
  <path id="Caminho_1125" data-name="Caminho 1125" d="M76.225,206.885a3.339,3.339,0,0,1-.3-2.781,64.208,64.208,0,0,0,2.424-9.632,3.353,3.353,0,0,1,4.36-2.609l1.148.37a4.165,4.165,0,0,1,0-2.033,4.255,4.255,0,0,1,8.382,1.008,4.186,4.186,0,0,1-1.1,2.864c1.32.251,2.578.44,3.806.612h0a1.1,1.1,0,0,1-.286,2.173c-1.588-.2-3.247-.484-4.937-.832h0a1.1,1.1,0,0,1-.4-.172,1.8,1.8,0,0,1-.717-1.905l.035-.145a1.807,1.807,0,0,1,.629-.968,2.011,2.011,0,0,0,.783-1.628,2.064,2.064,0,0,0-4.07-.475,2.023,2.023,0,0,0,.106,1.285,1.813,1.813,0,0,1,.1,1.153l-.035.145h0a1.8,1.8,0,0,1-1.536,1.32,1.1,1.1,0,0,1-.44-.04c-.735-.22-1.461-.44-2.16-.682h0a1.161,1.161,0,0,0-.968.106,1.135,1.135,0,0,0-.546.792,66.471,66.471,0,0,1-2.508,9.957,1.162,1.162,0,0,0,.88,1.509A66.341,66.341,0,0,1,91.4,209.71a1.1,1.1,0,1,1-.783,2.046,64.136,64.136,0,0,0-12.086-3.291,3.34,3.34,0,0,1-2.305-1.58Z" transform="translate(-75.749 -172.741)" fill="#09949f"/>
  <path id="Caminho_1126" data-name="Caminho 1126" d="M148.457,13.857a4.255,4.255,0,0,1-1,8.377,4.185,4.185,0,0,1-2.864-1.1c-.251,1.32-.44,2.578-.612,3.806h0a1.1,1.1,0,0,1-1.082.955h-.141a1.1,1.1,0,0,1-.95-1.241c.2-1.588.484-3.247.832-4.937h0a1.1,1.1,0,0,1,.172-.4,1.8,1.8,0,0,1,1.905-.717l.145.035a1.807,1.807,0,0,1,.968.629,2.011,2.011,0,0,0,1.628.783,2.064,2.064,0,0,0,.475-4.07,2.023,2.023,0,0,0-1.285.106,1.814,1.814,0,0,1-1.153.1l-.145-.035h0a1.8,1.8,0,0,1-1.32-1.536,1.093,1.093,0,0,1,.04-.44c.22-.735.44-1.461.682-2.16h0a1.161,1.161,0,0,0-.106-.968,1.135,1.135,0,0,0-.792-.546A66.47,66.47,0,0,1,133.9,7.988a1.162,1.162,0,0,0-1.509.88A66.319,66.319,0,0,1,128.957,21.4a1.1,1.1,0,0,1-2.046-.783A64.138,64.138,0,0,0,130.2,8.529a3.348,3.348,0,0,1,4.365-2.609,64.23,64.23,0,0,0,9.627,2.424A3.353,3.353,0,0,1,146.8,12.7c-.123.374-.251.761-.37,1.148a4.162,4.162,0,0,1,2.024,0Z" transform="translate(-122.831 -5.746)" fill="#09949f"/>
  <path id="Caminho_1127" data-name="Caminho 1127" d="M373.075,56.88A64.165,64.165,0,0,0,385.192,60.2a3.348,3.348,0,0,1,2.609,4.365,64.255,64.255,0,0,0-2.424,9.627,3.353,3.353,0,0,1-4.36,2.609l-1.148-.37a4.164,4.164,0,0,1,0,2.033,4.25,4.25,0,0,1-4.118,3.212,4.332,4.332,0,0,1-1.844-.413,4.228,4.228,0,0,1-1.32-6.666c-1.32-.251-2.578-.44-3.806-.612h0a1.1,1.1,0,0,1,.286-2.174c1.588.2,3.247.484,4.937.832h0a1.1,1.1,0,0,1,.4.172,1.8,1.8,0,0,1,.717,1.905l-.035.145a1.807,1.807,0,0,1-.629.968,2.011,2.011,0,0,0-.783,1.628,2.064,2.064,0,0,0,4.07.475,2.023,2.023,0,0,0-.106-1.285,1.813,1.813,0,0,1-.1-1.153l.035-.145h0a1.8,1.8,0,0,1,1.536-1.32,1.093,1.093,0,0,1,.44.04c.735.22,1.461.44,2.16.682h0a1.161,1.161,0,0,0,.968-.106,1.135,1.135,0,0,0,.546-.792,66.472,66.472,0,0,1,2.508-9.957,1.162,1.162,0,0,0-.88-1.509,66.342,66.342,0,0,1-12.531-3.432,1.1,1.1,0,0,1,.783-2.046Z" transform="translate(-344.88 -52.83)" fill="#09949f"/>
  <path id="Caminho_1128" data-name="Caminho 1128" d="M263.542,313.975a66.387,66.387,0,0,1,9.957,2.508,1.161,1.161,0,0,0,1.509-.88,66.343,66.343,0,0,1,3.432-12.531,1.1,1.1,0,1,1,2.046.783,64.166,64.166,0,0,0-3.317,12.117,3.348,3.348,0,0,1-4.365,2.609,64.242,64.242,0,0,0-9.627-2.424,3.353,3.353,0,0,1-2.609-4.36c.123-.374.251-.761.37-1.148a4.164,4.164,0,0,1-2.033,0,4.255,4.255,0,0,1,1-8.408,4.185,4.185,0,0,1,2.864,1.1c.251-1.32.44-2.578.612-3.806h0a1.1,1.1,0,0,1,2.169.277c-.2,1.588-.484,3.247-.832,4.937a1.094,1.094,0,0,1-.172.4,1.794,1.794,0,0,1-1.9.717l-.145-.035h0a1.81,1.81,0,0,1-.968-.629,2.011,2.011,0,0,0-1.624-.775,2.064,2.064,0,0,0-.475,4.07,2.023,2.023,0,0,0,1.285-.106,1.813,1.813,0,0,1,1.153-.1l.145.035h0a1.8,1.8,0,0,1,1.32,1.536,1.093,1.093,0,0,1-.04.44c-.22.735-.44,1.461-.682,2.16h0a1.161,1.161,0,0,0,.106.968,1.135,1.135,0,0,0,.823.541Z" transform="translate(-241.441 -275.633)" fill="#09949f"/>
</svg>
