<svg xmlns="http://www.w3.org/2000/svg" width="44.821" height="44.822" viewBox="0 0 44.821 44.822">
  <g id="Grupo_2455" data-name="Grupo 2455" transform="translate(0)">
    <path id="Caminho_1057" data-name="Caminho 1057" d="M265.6,188.9a1.117,1.117,0,1,0,0-2.234,8.935,8.935,0,1,0,8.935,8.935,1.117,1.117,0,1,0-2.234,0,6.7,6.7,0,1,1-6.7-6.7Z" transform="translate(-243.117 -173.267)" fill="#09949f"/>
    <path id="Caminho_1058" data-name="Caminho 1058" d="M158.917,62.391a1.118,1.118,0,0,0-2.133.667,20.181,20.181,0,1,1-13.211-13.211,1.117,1.117,0,1,0,.668-2.131,22.411,22.411,0,1,0,14.676,14.676Z" transform="translate(-115.122 -46.689)" fill="#09949f"/>
    <path id="Caminho_1059" data-name="Caminho 1059" d="M204.434,117.941a1.209,1.209,0,0,0-1.117-1.215c-.334-.029-.667-.056-1.01-.056a15.636,15.636,0,1,0,15.636,15.636,9.9,9.9,0,0,0-.074-1.209,1.125,1.125,0,1,0-2.207.392c.024.271.048.54.048.817a13.4,13.4,0,1,1-13.4-13.4c.277,0,.545.025.816.048l.209.019a1.056,1.056,0,0,0,1.1-1.029Z" transform="translate(-179.821 -109.97)" fill="#09949f"/>
    <path id="Caminho_1060" data-name="Caminho 1060" d="M346.058,77.821v4.005l-7.491,7.491a1.117,1.117,0,1,0,1.58,1.58l7.491-7.491h4.005a1.117,1.117,0,0,0,.79-.327l6.7-6.7a1.117,1.117,0,0,0-.79-1.906h-3.351V71.12a1.117,1.117,0,0,0-1.906-.79l-6.7,6.7a1.117,1.117,0,0,0-.327.79Zm2.234.463,4.468-4.468v1.771a1.116,1.116,0,0,0,1.117,1.117h1.771l-4.468,4.468h-2.888Z" transform="translate(-316.872 -67.771)" fill="#09949f"/>
  </g>
</svg>
