<svg xmlns="http://www.w3.org/2000/svg" width="43.095" height="43.094" viewBox="0 0 43.095 43.094">
  <g id="noun-ux-1849309" transform="translate(-91 -21.007)">
    <path id="Caminho_1132" data-name="Caminho 1132" d="M351.276,225.674a3.467,3.467,0,0,0,.44-1.693v-10.25a2.566,2.566,0,0,0-2.562-2.563h-.233a2.615,2.615,0,0,0-.324.02,2.565,2.565,0,0,0-2.471-1.884h-.466a2.56,2.56,0,0,1-2.8-.932H342.4c-.079,0-.156,0-.233.01v-2.571a2.8,2.8,0,0,0-2.791-2.795h0a2.795,2.795,0,0,0-2.8,2.8v9.719a.233.233,0,0,1-.363.194l-.448-.3a9.054,9.054,0,0,0-3.883-1.447l-.077-.01a2.481,2.481,0,0,0-2.75,2.947,2.573,2.573,0,0,0,1.01,1.577l1.518,1.1a13.387,13.387,0,0,1,4.282,5.645l.079.186a3.485,3.485,0,0,0,.519.812,2.539,2.539,0,0,0-.469,1.469v.7a2.566,2.566,0,0,0,2.563,2.563h6.755a1.165,1.165,0,0,0,0-2.329h-6.755a.233.233,0,0,1-.233-.233v-.7a.233.233,0,0,1,.233-.233h11.181a.233.233,0,0,1,.233.233v.7a.233.233,0,0,1-.233.233H348.8a1.165,1.165,0,0,0,0,2.329h.932a2.566,2.566,0,0,0,2.563-2.563v-.7a2.552,2.552,0,0,0-1.022-2.035Zm-12.153-.528a1.158,1.158,0,0,1-1.046-.651l-.065-.154a15.739,15.739,0,0,0-5.06-6.629l-1.518-1.1a.247.247,0,0,1-.1-.153.137.137,0,0,1,.035-.127.153.153,0,0,1,.115-.05h.024l.076.01a6.707,6.707,0,0,1,2.878,1.071l.446.3a2.562,2.562,0,0,0,3.992-2.125v-9.72a.466.466,0,0,1,.466-.466h0a.467.467,0,0,1,.465.466V212.1a1.165,1.165,0,0,0,2.329,0v-1.165a.233.233,0,0,1,.233-.233h.466a.233.233,0,0,1,.233.233v2.1a1.165,1.165,0,1,0,2.329,0v-1.165a.233.233,0,0,1,.233-.233h.466a.233.233,0,0,1,.233.233v2.562a1.165,1.165,0,0,0,2.33,0v-.7a.233.233,0,0,1,.233-.233h.233a.233.233,0,0,1,.233.233v10.25a1.166,1.166,0,0,1-1.165,1.165Z" transform="translate(-218.202 -166.869)" fill="#09949f"/>
    <path id="Caminho_1133" data-name="Caminho 1133" d="M113.713,36.439V31.2a3.2,3.2,0,1,1,6.406,0v2.621a1.165,1.165,0,1,0,2.329,0V31.2a5.533,5.533,0,1,0-11.065,0v5.241a7.28,7.28,0,0,1-14.559,0V24.983l1.506,1.506a1.165,1.165,0,0,0,1.647-1.647l-3.494-3.494a1.162,1.162,0,0,0-.178-.146c-.029-.02-.061-.033-.092-.05a1.188,1.188,0,0,0-.108-.057,1.135,1.135,0,0,0-.12-.037c-.032-.009-.064-.022-.1-.029a1.186,1.186,0,0,0-.457,0c-.034.007-.065.019-.1.029a1.1,1.1,0,0,0-.119.037,1.053,1.053,0,0,0-.109.058.952.952,0,0,0-.091.05,1.185,1.185,0,0,0-.178.146l-3.494,3.494a1.165,1.165,0,0,0,1.647,1.647l1.506-1.506V36.439a9.609,9.609,0,0,0,19.218,0Z" transform="translate(0 0)" fill="#09949f"/>
  </g>
</svg>
