<svg xmlns="http://www.w3.org/2000/svg" width="40.415" height="47.316" viewBox="0 0 40.415 47.316">
  <g id="Grupo_2454" data-name="Grupo 2454" transform="translate(0 0)">
    <path id="Caminho_1010" data-name="Caminho 1010" d="M456.348,287.214a.986.986,0,0,1-.823-1.527c.048-.073.108-.163.18-.27,1.819-2.719,2.741-4.653,2.741-5.747,0-.407-.092-.517-.493-.586a.986.986,0,0,1,.334-1.943,2.39,2.39,0,0,1,2.131,2.529c0,1.992-1.643,4.7-3.074,6.843l-.17.256a.984.984,0,0,1-.825.445Z" transform="translate(-425.66 -253.729)" fill="#09949f"/>
    <path id="Caminho_1011" data-name="Caminho 1011" d="M399.356,186.192h-8.575a.986.986,0,0,1,0-1.972h7.628a10.261,10.261,0,0,1,2.573-6.157,10.611,10.611,0,0,0,2.226-4.194,5.631,5.631,0,0,0,.117-1.336,32.951,32.951,0,0,0-.941-6.771.986.986,0,0,1,1.919-.451,34.469,34.469,0,0,1,.993,7.222,7.52,7.52,0,0,1-.178,1.821,12.563,12.563,0,0,1-2.571,4.907,8.465,8.465,0,0,0-2.207,5.952.986.986,0,0,1-.986.978Zm-9.8-3.673h-.046a.986.986,0,0,1-.94-1.03c.017-.369.044-.865.077-1.128a23.144,23.144,0,0,1,2.769-7.02c1.3-2.251,3.288-4.918,5.515-5.11a21.651,21.651,0,0,1-.837-5.533,9.629,9.629,0,0,1,.143-1.744c.268-1.474,1.5-3.556,3.4-3.556a2.586,2.586,0,0,1,.648.084c.921.243,1.71,1.183,2.486,2.958a.986.986,0,0,1-1.807.789c-.72-1.648-1.181-1.84-1.186-1.842a.577.577,0,0,0-.142-.018c-.585,0-1.3,1.085-1.458,1.94a7.7,7.7,0,0,0-.111,1.388,20.182,20.182,0,0,0,1.283,6.566.986.986,0,0,1-1.568,1.1.854.854,0,0,0-.421-.161l-.01,0a.933.933,0,0,0-.164-.014c-.811,0-2.3,1.086-4.061,4.134a21.153,21.153,0,0,0-2.52,6.275c-.008.061-.033.3-.064.978a.987.987,0,0,1-.985.941Z" transform="translate(-364.881 -144.79)" fill="#09949f"/>
    <path id="Caminho_1012" data-name="Caminho 1012" d="M392.138,462.885h-13.8a.986.986,0,0,1-.986-.986v-5.914a.986.986,0,0,1,.986-.986h4.025a.986.986,0,1,1,0,1.972h-3.039v3.943h11.651l-.657-3.943h-3.026a.986.986,0,1,1,0-1.972h3.861a.986.986,0,0,1,.972.823l.986,5.914a.986.986,0,0,1-.972,1.148Z" transform="translate(-354.679 -415.57)" fill="#09949f"/>
    <path id="Caminho_1013" data-name="Caminho 1013" d="M487.708,489.786a.987.987,0,1,1,.7-.289A.994.994,0,0,1,487.708,489.786Z" transform="translate(-454.193 -445.428)" fill="#09949f"/>
    <path id="Caminho_1014" data-name="Caminho 1014" d="M192.617,287.214a.985.985,0,0,1-.825-.445l-.17-.255c-1.431-2.14-3.074-4.851-3.074-6.844a2.391,2.391,0,0,1,2.131-2.529.986.986,0,0,1,.334,1.943c-.4.069-.494.179-.494.586,0,1.094.922,3.028,2.742,5.747l.18.27a.986.986,0,0,1-.823,1.527Z" transform="translate(-182.891 -253.728)" fill="#09949f"/>
    <path id="Caminho_1015" data-name="Caminho 1015" d="M140.293,186.192h-8.575a.986.986,0,0,1-.986-.978,8.465,8.465,0,0,0-2.207-5.952,12.568,12.568,0,0,1-2.571-4.909,7.544,7.544,0,0,1-.177-1.82,34.479,34.479,0,0,1,.993-7.222.986.986,0,1,1,1.919.451,32.949,32.949,0,0,0-.941,6.771,5.642,5.642,0,0,0,.117,1.335,10.624,10.624,0,0,0,2.226,4.2,10.26,10.26,0,0,1,2.574,6.157h7.628a.986.986,0,0,1,0,1.972Zm1.23-3.673a.986.986,0,0,1-.984-.94c-.031-.681-.057-.917-.064-.974a21.143,21.143,0,0,0-2.521-6.279c-1.757-3.048-3.25-4.134-4.061-4.134a.935.935,0,0,0-.164.014l-.01,0a.846.846,0,0,0-.421.161.986.986,0,0,1-1.568-1.1,20.183,20.183,0,0,0,1.283-6.566,7.7,7.7,0,0,0-.11-1.384c-.156-.859-.874-1.945-1.459-1.945a.593.593,0,0,0-.151.02s-.459.2-1.177,1.839a.986.986,0,1,1-1.807-.789c.775-1.775,1.564-2.714,2.483-2.957a2.574,2.574,0,0,1,.651-.085c1.9,0,3.13,2.082,3.4,3.56a9.649,9.649,0,0,1,.142,1.739,21.669,21.669,0,0,1-.837,5.533c2.226.192,4.218,2.859,5.515,5.11a23.138,23.138,0,0,1,2.769,7.024c.032.257.059.753.076,1.122a.985.985,0,0,1-.939,1.03l-.045,0Z" transform="translate(-125.777 -144.79)" fill="#09949f"/>
    <path id="Caminho_1016" data-name="Caminho 1016" d="M162.45,462.886h-13.8a.985.985,0,0,1-.972-1.148l.986-5.914a.986.986,0,0,1,.972-.823H153.5a.986.986,0,0,1,0,1.972h-3.027l-.657,3.943h11.651v-3.943h-3.039a.986.986,0,0,1,0-1.972h4.025a.986.986,0,0,1,.986.986V461.9a.986.986,0,0,1-.986.986Z" transform="translate(-145.692 -415.571)" fill="#09949f"/>
    <path id="Caminho_1017" data-name="Caminho 1017" d="M192.388,489.786a.986.986,0,1,1,.7-.289A.994.994,0,0,1,192.388,489.786Z" transform="translate(-185.488 -445.428)" fill="#09949f"/>
    <path id="Caminho_1018" data-name="Caminho 1018" d="M230.2,26.372a.986.986,0,0,1-.882-.545c-1.932-3.861-6.327-6.356-11.2-6.356s-9.264,2.495-11.2,6.356a.986.986,0,1,1-1.763-.882c2.263-4.522,7.35-7.445,12.959-7.445s10.7,2.922,12.959,7.445a.986.986,0,0,1-.881,1.427Z" transform="translate(-197.914 -17.5)" fill="#09949f"/>
    <path id="Caminho_1019" data-name="Caminho 1019" d="M281.763,175.018H268.948a.986.986,0,0,1-.986-.986v-2.464a6.434,6.434,0,0,1,4.223-5.791.986.986,0,0,1,1.173.334,2.463,2.463,0,0,0,3.994,0,.986.986,0,0,1,1.173-.333,7.411,7.411,0,0,1,2.519,1.7.986.986,0,0,1-1.423,1.365,5.243,5.243,0,0,0-1.229-.939,4.431,4.431,0,0,1-6.077,0,4.262,4.262,0,0,0-2.382,3.671v1.479h10.843V172.7a.986.986,0,1,1,1.972,0v1.33a.986.986,0,0,1-.986.986Z" transform="translate(-255.148 -152.347)" fill="#09949f"/>
    <path id="Caminho_1020" data-name="Caminho 1020" d="M305.217,113.877a4.45,4.45,0,0,1-3.594-1.837,4.4,4.4,0,0,1-.842-2.6c0-.1,0-.2.009-.293a4.443,4.443,0,0,1,4.118-4.132c.1-.007.207-.011.309-.011a4.436,4.436,0,0,1,0,8.871Zm0-6.9c-.058,0-.117,0-.175.006a2.465,2.465,0,0,0-2.284,2.293c0,.055-.005.111-.005.165a2.445,2.445,0,0,0,.467,1.443,2.463,2.463,0,0,0,3.994,0,2.464,2.464,0,0,0-2-3.907Z" transform="translate(-285.009 -97.12)" fill="#09949f"/>
    <path id="Caminho_1021" data-name="Caminho 1021" d="M487.708,117.916a.986.986,0,1,1,.7-.289A.995.995,0,0,1,487.708,117.916Z" transform="translate(-454.193 -107.073)" fill="#09949f"/>
    <path id="Caminho_1022" data-name="Caminho 1022" d="M192.388,117.916a.986.986,0,1,1,.7-.289A.995.995,0,0,1,192.388,117.916Z" transform="translate(-185.488 -107.073)" fill="#09949f"/>
  </g>
</svg>
