<svg xmlns="http://www.w3.org/2000/svg" width="50.434" height="38.438" viewBox="0 0 50.434 38.438">
  <g id="Grupo_2465" data-name="Grupo 2465" transform="translate(0)">
    <path id="Caminho_1102" data-name="Caminho 1102" d="M123.963,79.113a2.879,2.879,0,0,0-2.281-1.077l-25.669.01L94.37,71.783a2.441,2.441,0,0,0-2.384-1.934H88.341a1.2,1.2,0,0,0-1.2,1.2v1.494a4.861,4.861,0,0,0,.579,2.31c-1.986.87-3.84,3.218-4.774,6.352h0a13.076,13.076,0,0,0-.555,3.635l-1.908,1.129a3.557,3.557,0,0,0-1.544,1.894l-4.594,13.279a2.761,2.761,0,0,0,1.73,3.52L86.3,108.138h0a2.786,2.786,0,0,0,3.527-1.717l4.6-13.293h0a3.532,3.532,0,0,0-.034-2.4l-2.933-7.741h0a2.59,2.59,0,0,0-3.742-1.3L84.74,83.452a11.4,11.4,0,0,1,.354-1.6c.99-3.321,3.065-5.28,4.434-5.108h0a4.914,4.914,0,0,0,2.55.71h.03l1.266-.007,4.781,18.239a2.952,2.952,0,0,0,2.88,2.336h17.831a2.944,2.944,0,0,0,2.885-2.356l2.82-14.121a2.9,2.9,0,0,0-.606-2.433ZM86.194,88.582a1.743,1.743,0,0,1-1-.921,4.7,4.7,0,0,1-.457-1.426l4.2-2.493h0a.193.193,0,0,1,.16-.016.169.169,0,0,1,.109.1l2.933,7.74a1.131,1.131,0,0,1,.012.77l-4.6,13.289a.386.386,0,0,1-.487.23L76.85,102.384a.375.375,0,0,1-.217-.19.35.35,0,0,1-.017-.272l4.593-13.279a1.16,1.16,0,0,1,.5-.614l1.01-.6h0a6.411,6.411,0,0,0,.51,1.3,3.937,3.937,0,0,0,2.333,2,1.12,1.12,0,0,0,1.425-.915,1.12,1.12,0,0,0-.795-1.234Zm5.9-13.537a2.549,2.549,0,0,1-1.816-.74,2.475,2.475,0,0,1-.736-1.76v-.294h2.445l.759,2.793Zm27.3,20.139a.54.54,0,0,1-.532.425H101.036a.56.56,0,0,1-.546-.484l-.912-3.481H120.1Zm2.819-14.121-1.633,8.183H98.948l-2.306-8.8,25.039-.01a.542.542,0,0,1,.425.2.506.506,0,0,1,.11.427Z" transform="translate(-74.195 -69.849)" fill="#09949f"/>
    <path id="Caminho_1103" data-name="Caminho 1103" d="M350.333,393.569a4.256,4.256,0,1,0,3.009,1.238,4.24,4.24,0,0,0-3.009-1.238Zm0,6.075a1.853,1.853,0,1,1,1.313-.534,1.841,1.841,0,0,1-1.313.534Z" transform="translate(-321.257 -363.973)" fill="#09949f"/>
    <path id="Caminho_1104" data-name="Caminho 1104" d="M496.173,393.569a4.256,4.256,0,1,0,3.009,1.238,4.24,4.24,0,0,0-3.009-1.238Zm0,6.075a1.854,1.854,0,1,1,1.313-.534,1.842,1.842,0,0,1-1.313.534Z" transform="translate(-453.764 -363.973)" fill="#09949f"/>
  </g>
</svg>
