<svg xmlns="http://www.w3.org/2000/svg" width="42.322" height="38.967" viewBox="0 0 42.322 38.967">
  <g id="Grupo_2168" data-name="Grupo 2168" transform="translate(-505 -5321)">
    <path id="Caminho_853" data-name="Caminho 853" d="M87.016,69.824a2.97,2.97,0,0,0,2.958,2.958h32.209a2.97,2.97,0,0,0,2.958-2.958V64.376H113.414c-5.367,0-5.367-8.158,0-8.158h11.728V50.769a2.969,2.969,0,0,0-2.958-2.958H90.867a5.916,5.916,0,0,1-3.85-1.423V69.824ZM119.925,60.3a1.057,1.057,0,0,1,2.113,0A1.057,1.057,0,0,1,119.925,60.3Zm-1.116-14.583v-2.8H94.246v2.8Zm-26.662,0V41.862A1.048,1.048,0,0,1,93.2,40.813h26.663a1.048,1.048,0,0,1,1.049,1.049v3.851h1.275a5.02,5.02,0,0,1,2.958.962V40.068a2.065,2.065,0,0,0-2.056-2.056H90.867a3.851,3.851,0,0,0,0,7.7h1.281Zm24.674,12.6v3.961h8.32V58.316Zm-2.1,3.961V58.316h-1.311a1.981,1.981,0,0,0,0,3.961Zm12.516,7.547a5.067,5.067,0,0,1-5.056,5.056H89.974a5.067,5.067,0,0,1-5.056-5.056V41.862a5.963,5.963,0,0,1,5.949-5.949h32.219a4.163,4.163,0,0,1,4.154,4.154V69.825Z" transform="translate(420.082 5285.087)" fill="#09949f"/>
  </g>
</svg>
