<svg xmlns="http://www.w3.org/2000/svg" width="43.578" height="31.691" viewBox="0 0 43.578 31.691">
  <path id="Caminho_878" data-name="Caminho 878" d="M115.424,87.444h-6.177V84.726h0a4.055,4.055,0,0,0-4.05-4.051H79.947a4.055,4.055,0,0,0-4.05,4.05V97.176a4.055,4.055,0,0,0,4.05,4.05h6.177v2.718h0a4.055,4.055,0,0,0,4.05,4.051h3.77v3.52a.85.85,0,0,0,1.265.745L102.916,108h12.511a4.055,4.055,0,0,0,4.048-4.052V91.494a4.055,4.055,0,0,0-4.05-4.05ZM77.6,97.176V84.725a2.351,2.351,0,0,1,2.348-2.348H105.2a2.35,2.35,0,0,1,2.348,2.348V97.176a2.351,2.351,0,0,1-2.348,2.348h-4.622a.851.851,0,0,0-.851.851V103.3l-6.635-3.672a.852.852,0,0,0-.412-.107H79.947A2.351,2.351,0,0,1,77.6,97.176Zm40.173,6.767a2.351,2.351,0,0,1-2.348,2.348h-12.73a.856.856,0,0,0-.412.106l-6.635,3.673v-2.928a.851.851,0,0,0-.851-.851H90.175a2.351,2.351,0,0,1-2.348-2.348v-2.718h4.631l7.706,4.264h0a.851.851,0,0,0,1.265-.745v-3.521H105.2a4.055,4.055,0,0,0,4.05-4.048V89.147h6.177a2.35,2.35,0,0,1,2.348,2.347ZM80.877,86.251a.851.851,0,0,1,.851-.851h21.686a.851.851,0,1,1,0,1.7H81.728a.851.851,0,0,1-.851-.851Zm0,4.7a.851.851,0,0,1,.851-.849h21.686a.851.851,0,0,1,0,1.7H81.728a.851.851,0,0,1-.851-.853Zm22.539,5.55H81.729a.851.851,0,0,1,0-1.7h21.686a.851.851,0,0,1,0,1.7Z" transform="translate(-75.897 -80.676)" fill="#fff"/>
</svg>
