<svg xmlns="http://www.w3.org/2000/svg" width="42.481" height="41.882" viewBox="0 0 42.481 41.882">
  <path id="Caminho_919" data-name="Caminho 919" d="M100.436,33.025a1.411,1.411,0,0,1,1.378-.361L100.078,34.4a1.41,1.41,0,0,1,.36-1.378ZM99.87,37a1.409,1.409,0,0,1-1.789,1.356l1.737-1.736A1.407,1.407,0,0,1,99.87,37ZM95.91,38.566a.692.692,0,0,0,.979.979l.144-.144a2.8,2.8,0,0,0,3.831-3.831l1.927-1.927a1.413,1.413,0,0,1-.361,1.378.692.692,0,0,0,.977.977,2.8,2.8,0,0,0,.429-3.4l.143-.143a.692.692,0,1,0-.979-.979l-.144.143a2.8,2.8,0,0,0-3.83,3.831L97.1,37.375h0A1.408,1.408,0,0,1,97.459,36a.692.692,0,0,0-.978-.979,2.8,2.8,0,0,0-.429,3.4l-.143.143Zm-.464-7.556h0a6.364,6.364,0,1,0,4.5-1.864,6.365,6.365,0,0,0-4.5,1.864Zm-.979,9.979A7.748,7.748,0,1,0,92.2,35.51a7.748,7.748,0,0,0,2.27,5.479ZM81.881,38.207l.775-.775L98.025,52.8l-.775.775a1.556,1.556,0,0,1-2.2,0L81.881,40.4a1.557,1.557,0,0,1,0-2.2Zm29.98-14.015h0a1.609,1.609,0,0,0,.621.382,1.295,1.295,0,0,1-1.27-2.161,1.268,1.268,0,0,1,.233-.183,2.073,2.073,0,0,0,.416,1.963Zm1.182-1.779a1.28,1.28,0,0,1,.377.869.765.765,0,0,1-.58-.069c-.119-.119-.128-.455.015-.955a1.327,1.327,0,0,1,.188.155Zm-10.8-3.943h0a1.576,1.576,0,0,0-.484.079L116.908,33.7a1.576,1.576,0,0,0,.079-.484l.154-13.323h0a1.556,1.556,0,0,0-1.551-1.573h-.274A14.308,14.308,0,0,0,113.4,20.97a2.685,2.685,0,1,1-1.39-.319,13.963,13.963,0,0,1,1.486-2.314l-11.255.13Zm18.632-3.294c.369.37.7,1.771-2.284,4.752-.022.024-.046.045-.068.067V19.9a2.953,2.953,0,0,0-2.008-2.826c2.8-2.656,4.007-2.254,4.359-1.9Zm-4.837,19.609L100.671,19.417,83.637,36.451,99,51.821l17.034-17.034ZM94.071,54.554a2.942,2.942,0,0,0,4.158,0l19.282-19.282a2.846,2.846,0,0,0,.861-2.044L118.5,21.9c.363-.315.721-.649,1.071-1,2.732-2.732,3.736-5.258,2.284-6.711s-3.978-.449-6.71,2.283c-.151.151-.3.305-.446.459l-12.474.145a2.845,2.845,0,0,0-2.045.861L80.9,37.228a2.941,2.941,0,0,0,0,4.156Z" transform="translate(-80.04 -13.532)" fill="#fff" fill-rule="evenodd"/>
</svg>
