<svg xmlns="http://www.w3.org/2000/svg" width="36.176" height="34.811" viewBox="0 0 36.176 34.811">
  <path id="Caminho_681" data-name="Caminho 681" d="M116.7,31.111a.886.886,0,0,1,.862,1.086l-3.154,15.77a.887.887,0,0,1-.868.713H93.476a.885.885,0,0,1-.872-.736L87.675,23.3H82.281a.885.885,0,0,1,0-1.771H88.4a.885.885,0,0,1,.868.713L94.2,46.909h18.612l2.806-14.027H95.843a.885.885,0,0,1,0-1.771Zm-18.35,8.414a.885.885,0,0,1,0-1.771h11.86a.885.885,0,0,1,0,1.771Zm-1.13-3.315a.885.885,0,0,1,0-1.771h11.86a.885.885,0,0,1,0,1.771Zm.364,13.778a3.176,3.176,0,1,1-3.176,3.176A3.176,3.176,0,0,1,97.583,49.989Zm0,1.771a1.405,1.405,0,1,0,1.405,1.405A1.405,1.405,0,0,0,97.583,51.76Zm11.848-1.771a3.176,3.176,0,1,1-3.176,3.176A3.176,3.176,0,0,1,109.431,49.989Zm0,1.771a1.405,1.405,0,1,0,1.405,1.405A1.405,1.405,0,0,0,109.431,51.76Z" transform="translate(-81.408 -21.53)" fill="#fff"/>
</svg>
