<svg xmlns="http://www.w3.org/2000/svg" width="33.054" height="38.584" viewBox="0 0 33.054 38.584">
  <path id="Caminho_718" data-name="Caminho 718" d="M170.122,68.469a10.483,10.483,0,0,0,3.535-3.356,14.612,14.612,0,0,0,1.789-1.07,2.407,2.407,0,0,0,4.1-1.7V58.029a2.4,2.4,0,0,0-2.242-2.393,13.013,13.013,0,0,0-24.9,0,2.4,2.4,0,0,0-2.106,2.378v4.311a2.407,2.407,0,0,0,4.764.467,10.453,10.453,0,0,0,4.671,5.684A11.735,11.735,0,0,0,148.752,80.2v4.081a.718.718,0,0,0,.719.719h31.617a.718.718,0,0,0,.719-.719V80.685a12.216,12.216,0,0,0-11.684-12.216Zm-1.753,1.653c0,1.516-1.509,2.752-3.363,2.752s-3.363-1.236-3.363-2.752q.016-.109.043-.216h6.676a2.384,2.384,0,0,1,0,.244Zm5.511-10.06c-2.055-1.976-2.414-5.324-2.465-6.826a8.946,8.946,0,0,1,2.486,6.252v.625ZM178.328,58v4.311h0a1.186,1.186,0,0,1-2.156.719.716.716,0,0,0-.115-.309.648.648,0,0,0-.065-.057,1.175,1.175,0,0,1-.05-.316V58.036a1.186,1.186,0,1,1,2.371,0ZM153.9,62.311h0a1.186,1.186,0,1,1-2.371,0V58a1.186,1.186,0,1,1,2.371,0Zm-.23-6.517a11.763,11.763,0,0,1,22.39.115,2.406,2.406,0,0,0-1.049,1.063,10.4,10.4,0,0,0-20.177,0,2.414,2.414,0,0,0-1.171-1.128Zm16.4-3.715a10.288,10.288,0,0,1-5.871,5.583,11.908,11.908,0,0,1-7.9-.553h0a8.961,8.961,0,0,1,13.825-5.03Zm-14.134,7.409a5.553,5.553,0,0,1,.043-.848,13.183,13.183,0,0,0,8.623.474,10.721,10.721,0,0,0,5.49-4.218c.28,2.156,1.114,5.109,3.514,6.855a8.933,8.933,0,0,1-.934,2.256,16.66,16.66,0,0,1-6.13,1.473,1.7,1.7,0,1,0-.23,1.437,19.466,19.466,0,0,0,4.548-.719,8.939,8.939,0,0,1-5.849,2.271h-.18a9,9,0,0,1-8.9-8.982Zm8.939,6.029h-.086a.437.437,0,0,1,.129,0h-.043Zm15.492,18.043h-4.311V80.685a.719.719,0,1,0-1.437,0v2.874H156.656V80.685a.719.719,0,1,0-1.437,0v2.874h-5.03V80.2a10.3,10.3,0,0,1,10.06-10.29v.23c0,2.314,2.156,4.189,4.8,4.189s4.8-1.883,4.8-4.189v-.23a10.814,10.814,0,0,1,10.52,10.778Z" transform="translate(-148.752 -46.412)" fill="#fff"/>
</svg>
