<svg id="Grupo_2020" data-name="Grupo 2020" xmlns="http://www.w3.org/2000/svg" width="40.787" height="40.795" viewBox="0 0 40.787 40.795">
  <path id="Caminho_741" data-name="Caminho 741" d="M210,385.637v6.373a.637.637,0,1,0,1.275,0v-6.373a.637.637,0,1,0-1.275,0Z" transform="translate(-199.802 -356.958)" fill="#fff"/>
  <path id="Caminho_742" data-name="Caminho 742" d="M157.5,385.637v6.373a.637.637,0,1,0,1.275,0v-6.373a.637.637,0,1,0-1.275,0Z" transform="translate(-151.126 -356.958)" fill="#fff"/>
  <path id="Caminho_743" data-name="Caminho 743" d="M315,368.137v7.647a.637.637,0,1,0,1.275,0v-7.647a.637.637,0,1,0-1.275,0Z" transform="translate(-297.155 -340.733)" fill="#fff"/>
  <path id="Caminho_744" data-name="Caminho 744" d="M262.5,376.887v7.01a.637.637,0,1,0,1.275,0v-7.01a.637.637,0,0,0-1.275,0Z" transform="translate(-248.479 -348.846)" fill="#fff"/>
  <path id="Caminho_745" data-name="Caminho 745" d="M367.5,350.637v8.922a.637.637,0,1,0,1.275,0v-8.922a.637.637,0,1,0-1.275,0Z" transform="translate(-345.831 -324.507)" fill="#fff"/>
  <path id="Caminho_746" data-name="Caminho 746" d="M420,315.637v11.471a.637.637,0,1,0,1.275,0V315.637a.637.637,0,1,0-1.275,0Z" transform="translate(-394.507 -292.057)" fill="#fff"/>
  <path id="Caminho_747" data-name="Caminho 747" d="M472.5,263.137v15.3a.637.637,0,1,0,1.275,0v-15.3a.637.637,0,0,0-1.275,0Z" transform="translate(-443.184 -243.38)" fill="#fff"/>
  <path id="Caminho_748" data-name="Caminho 748" d="M525,193.137v20.393a.637.637,0,1,0,1.275,0V193.137a.637.637,0,1,0-1.275,0Z" transform="translate(-491.86 -178.479)" fill="#fff"/>
  <path id="Caminho_749" data-name="Caminho 749" d="M161.961,57.931h-3.824a.637.637,0,0,0,0,1.275h3.824A23.607,23.607,0,0,0,185.49,37.112L187,38.625h0a.637.637,0,0,0,.9-.9l-2.549-2.549a.637.637,0,0,0-.9,0L181.9,37.724a.637.637,0,0,0,.9.9l1.4-1.4a22.331,22.331,0,0,1-22.242,20.7Z" transform="translate(-151.126 -32.438)" fill="#fff"/>
  <path id="Caminho_750" data-name="Caminho 750" d="M167.059,54.119a9.57,9.57,0,1,0-6.756-2.8A9.56,9.56,0,0,0,167.059,54.119Zm0-17.844A8.294,8.294,0,1,1,161.2,38.7,8.285,8.285,0,0,1,167.059,36.275Z" transform="translate(-151.126 -32.45)" fill="#fff"/>
  <path id="Caminho_751" data-name="Caminho 751" d="M193.487,80.7a.637.637,0,0,0,1.1-.637,5.735,5.735,0,1,1,1.529,1.721.637.637,0,0,0-.765,1.02,7,7,0,1,0-1.866-2.1Z" transform="translate(-183.626 -65.088)" fill="#fff"/>
  <path id="Caminho_752" data-name="Caminho 752" d="M264.453,127.6h-1.312a.637.637,0,1,0,0,1.275h1.312a1.912,1.912,0,1,0-.038-3.824.637.637,0,1,1,0-1.275h1.312a.637.637,0,1,0,0-1.275h-1.312a1.912,1.912,0,1,0,.038,3.824.637.637,0,1,1,0,1.275Z" transform="translate(-248.482 -113.577)" fill="#fff"/>
  <path id="Caminho_740" data-name="Caminho 740" d="M110.725,37.831a.638.638,0,0,0-.139-.695l-2.549-2.549a.637.637,0,0,0-.9.9L108.6,36.95H74.448a.637.637,0,0,1-.637-.637V2.163l1.461,1.461a.637.637,0,0,0,.9-.9L73.624.174a.637.637,0,0,0-.9,0L70.172,2.723a.638.638,0,1,0,.9.9l1.461-1.461v34.15a1.912,1.912,0,0,0,1.912,1.912H108.6l-1.461,1.461h0a.637.637,0,1,0,.9.9l2.549-2.549a.634.634,0,0,0,.138-.207Z" transform="translate(-69.986 0.013)" fill="#fff"/>
</svg>
