<svg xmlns="http://www.w3.org/2000/svg" width="53.708" height="39.835" viewBox="0 0 53.708 39.835">
  <path id="Caminho_1101" data-name="Caminho 1101" d="M152.929,114.381,141.01,95.422a.772.772,0,0,0-.563-.375,1.059,1.059,0,0,0-.751.094l-5.632,3.567a.923.923,0,0,0-.282,1.314l.282.469c-2.253-.375-5.725-.563-7.978.469h-.094c-2.44-.845-6.57-.375-9.01.094l.751-1.22a.95.95,0,0,0-.375-1.314l-5.538-3.285a1,1,0,0,0-.751-.094c-.282.094-.469.188-.563.469L99.524,114.945a.95.95,0,0,0,.375,1.314l5.444,3.1a.846.846,0,0,0,.469.094,1.12,1.12,0,0,0,.845-.469l1.126-1.971a5.211,5.211,0,0,0,1.032,1.6,4.034,4.034,0,0,0-1.032,2.628,3.849,3.849,0,0,0,3.942,3.942h.375v.375a3.974,3.974,0,0,0,1.126,2.816,3.82,3.82,0,0,0,2.816,1.126h.375v.375a3.849,3.849,0,0,0,3.942,3.942,4.139,4.139,0,0,0,2.816-1.126l.375-.375L125.8,134a3.793,3.793,0,0,0,2.346.845,3.571,3.571,0,0,0,3-1.408,3.488,3.488,0,0,0,.751-2.065h.188a3.823,3.823,0,0,0,3-1.408,3.721,3.721,0,0,0,.751-2.065h.282a4.049,4.049,0,0,0,3-1.314,3.092,3.092,0,0,0,.751-2.065,3.314,3.314,0,0,0,2.44-1.408,3.483,3.483,0,0,0,.375-3.661l2.534-1.5.751,1.22a.772.772,0,0,0,.563.375h.188a.717.717,0,0,0,.469-.188l5.632-3.66A1.135,1.135,0,0,0,152.929,114.381ZM105.437,117.2l-3.848-2.159,10.043-17.833,3.942,2.346Zm4.693,5.538a2.069,2.069,0,0,1-.563-1.408,1.91,1.91,0,0,1,.563-1.408l.563-.563a2.161,2.161,0,0,1,2.91,0,2.07,2.07,0,0,1,.563,1.408,1.91,1.91,0,0,1-.563,1.408l-.563.563A2.16,2.16,0,0,1,110.13,122.735Zm4.224,4.224a2.07,2.07,0,0,1-.563-1.408,1.91,1.91,0,0,1,.563-1.408l.563-.563a2.041,2.041,0,0,1,2.816,0,1.987,1.987,0,0,1,0,2.91l-.563.563A2.146,2.146,0,0,1,114.354,126.959Zm7.133,4.224a2.161,2.161,0,0,1-2.91,0,2.069,2.069,0,0,1-.563-1.408,1.91,1.91,0,0,1,.563-1.408l.563-.563a1.971,1.971,0,0,1,3.379,1.408,1.91,1.91,0,0,1-.563,1.408ZM140.54,121.8a1.7,1.7,0,0,1-1.6.657.7.7,0,0,0-.469-.094l-.563-.282-1.877-1.5a.939.939,0,1,0-1.126,1.5l1.877,1.5a8.258,8.258,0,0,0,.939.563,1.892,1.892,0,0,1-.282,1.032,2.033,2.033,0,0,1-2.628.375l-.094-.094a.092.092,0,0,1-.094-.094l-1.877-1.5a.939.939,0,0,0-1.126,1.5l1.877,1.5.094.094a1.577,1.577,0,0,1-.094,1.689,2.017,2.017,0,0,1-2.44.469c-.094-.094-.188-.094-.282-.188l-.094-.094-1.877-1.5a.939.939,0,1,0-1.126,1.5l1.877,1.5c.094,0,.094.094.188.188a1.627,1.627,0,0,1-.282,1.689,1.645,1.645,0,0,1-1.5.657,1.554,1.554,0,0,1-1.22-.469l-1.877-1.408-.469-.282a3.891,3.891,0,0,0,.282-1.5,3.974,3.974,0,0,0-1.126-2.816,3.884,3.884,0,0,0-3.1-1.126,3.9,3.9,0,0,0-4.224-4.224v-.375a3.974,3.974,0,0,0-1.126-2.816,4.077,4.077,0,0,0-4.881-.563,5.328,5.328,0,0,1-1.126-2.534l6.758-11.733a29.7,29.7,0,0,1,8.447-.657l-6.476,6.007a2.946,2.946,0,0,0-.094,4.13,3,3,0,0,0,2.253,1.032,3.164,3.164,0,0,0,1.6-.469l5.35-3.567a3.258,3.258,0,0,1,2.628-.563l.939.094,8.541,9.01,1.5,1.6a1.825,1.825,0,0,1,0,2.159Zm.751-4.036-1.032-1.126-6.946-7.415,1.22.094a.943.943,0,0,0,.188-1.877l-3.567-.375a.846.846,0,0,0-.469-.094l-.939-.094a5.42,5.42,0,0,0-3.942.939l-5.35,3.567a1.109,1.109,0,0,1-1.408-1.689l7.039-6.57c.094-.094.282-.188.375-.375a.488.488,0,0,0,.375-.188c1.971-.939,6.007-.563,8.541,0l8.541,13.61Zm5.538-.563-.657-.939a.345.345,0,0,0-.094-.282c-.094-.094-.188-.188-.188-.282l-9.949-15.956,4.036-2.534,10.888,17.364Z" transform="translate(-99.392 -95.008)" fill="#09949f"/>
</svg>
