<svg xmlns="http://www.w3.org/2000/svg" xmlns:xlink="http://www.w3.org/1999/xlink" width="281.307" height="50.667" viewBox="0 0 281.307 50.667">
  <defs>
    <clipPath id="clip-path">
      <path id="Caminho_669" data-name="Caminho 669" d="M44.393,0a.6.6,0,0,0-.563.416L39.088,14.962h-.014L29.285,45.009a1.662,1.662,0,0,1-.486.694l-.055.028a1.485,1.485,0,0,1-.735.332.618.618,0,0,1-.693-.513.6.6,0,0,1,.512-.693.407.407,0,0,0,.166-.07l.014-.014a.65.65,0,0,0,.125-.166l8.181-25.1,5.56-17a.606.606,0,0,0-.388-.763.628.628,0,0,0-.777.388L35.274,19.052l-8.86,27.523a1.622,1.622,0,0,1-.5.707,1.5,1.5,0,0,1-.777.36.6.6,0,0,1-.693-.513.609.609,0,0,1,.513-.693.35.35,0,0,0,.18-.083.385.385,0,0,0,.125-.166l9.72-30.228.028-.084.347-1.053,3.4-10.58A.605.605,0,1,0,37.6,3.869L34.1,14.823l-9.36,29.258v.014l-1.151,3.591-.014.014-.083.277a1.922,1.922,0,0,1-.79,1.082,1.682,1.682,0,0,1-.915.277,1.591,1.591,0,0,1-.915-.29A1.842,1.842,0,0,1,20.134,48l-6.823-20.41-.416,3.092a.608.608,0,1,1-1.206-.153l.749-5.56-.666-1.955L10.649,31.5a.608.608,0,0,1-1.207-.153l1.443-10.913a.455.455,0,0,0-.679-.444.676.676,0,0,0-.264.514L8.347,32.419a.608.608,0,1,1-1.207-.153l1.6-11.9a1.867,1.867,0,0,1,.8-1.4,1.62,1.62,0,0,1,.79-.264,1.777,1.777,0,0,1,1.761,1.4l9.193,27.537a.733.733,0,0,0,.264.4.469.469,0,0,0,.236.07.562.562,0,0,0,.249-.07.842.842,0,0,0,.305-.444l.028-.083L12.632,18.706c0-.014-.014-.028-.028-.042l-.014-.014c-.027-.028-.07-.028-.125-.028a.626.626,0,0,1-.611-.61.616.616,0,0,1,.611-.611,1.542,1.542,0,0,1,.831.25l.042.041a1.374,1.374,0,0,1,.457.651l9.193,27.22.527-1.65L14.712,17.582a.18.18,0,0,0-.042-.055.172.172,0,0,0-.125-.042.594.594,0,0,1-.61-.6.615.615,0,0,1,.61-.61,1.361,1.361,0,0,1,.818.249,1.276,1.276,0,0,1,.5.693L24.14,41.944l8.681-27.121H3.147A3.208,3.208,0,0,0,0,18.013V50.666H44.51a3.208,3.208,0,0,0,3.189-3.19V14.823H40.406L44.981.805a.616.616,0,0,0-.388-.777A.6.6,0,0,0,44.423,0Z" transform="translate(0 -0.001)" fill="none"/>
    </clipPath>
    <clipPath id="clip-path-2">
      <rect id="Ret창ngulo_555" data-name="Ret창ngulo 555" width="281.307" height="50.666" fill="#fff"/>
    </clipPath>
  </defs>
  <g id="Grupo_2174" data-name="Grupo 2174" transform="translate(0 0.001)">
    <g id="Grupo_1977" data-name="Grupo 1977" transform="translate(0 0.001)">
      <g id="Grupo_1976" data-name="Grupo 1976" clip-path="url(#clip-path)">
        <rect id="Ret창ngulo_554" data-name="Ret창ngulo 554" width="47.698" height="50.665" transform="translate(0 0)" fill="#fff"/>
      </g>
    </g>
    <g id="Grupo_1979" data-name="Grupo 1979" transform="translate(0 0)">
      <g id="Grupo_1978" data-name="Grupo 1978" clip-path="url(#clip-path-2)">
        <path id="Caminho_670" data-name="Caminho 670" d="M77.942,56.534h-.42L65.5,30.094h6.431l6.011,13.931,6.051-13.931H89.95Zm17.072-.975V30.094H110.7v5.253h-9.788v4.6h8.38v5.212h-8.38V50.2h9.923v5.361Zm30.379-20.821h-1v7.04h1.286a5.8,5.8,0,0,0,3.52-.921A3.194,3.194,0,0,0,130.4,38.19a2.977,2.977,0,0,0-1.178-2.64,6.917,6.917,0,0,0-3.832-.812M118.5,55.559V30.094h6.539a21.722,21.722,0,0,1,4.887.42,8.6,8.6,0,0,1,3.059,1.368,7.017,7.017,0,0,1,2.207,2.518,6.7,6.7,0,0,1,.785,3.168,7.242,7.242,0,0,1-1.232,4.21,7.955,7.955,0,0,1-3.52,2.829L139,55.559h-6.945l-6.8-10h-.866v10Zm24.775-7.188a21.364,21.364,0,0,0,3.994,2,9.478,9.478,0,0,0,3.209.582,4.244,4.244,0,0,0,2.531-.691,2.108,2.108,0,0,0,.948-1.787c0-1.042-1.124-2.207-3.4-3.506-.365-.2-.65-.379-.839-.487l-1.733-.975a10.756,10.756,0,0,1-3.709-3.209,7.064,7.064,0,0,1-1.219-4.061,6.337,6.337,0,0,1,2.329-5.05,8.972,8.972,0,0,1,5.984-1.963,14.409,14.409,0,0,1,2.924.324,27.672,27.672,0,0,1,3.521.975V36.5a20.363,20.363,0,0,0-3.493-1.787,8.2,8.2,0,0,0-2.816-.623,3.308,3.308,0,0,0-2.017.555,1.745,1.745,0,0,0-.744,1.489,1.982,1.982,0,0,0,.447,1.246,3.8,3.8,0,0,0,1.313,1.056l2.978,1.651a15.866,15.866,0,0,1,5.05,3.832,6.787,6.787,0,0,1,1.3,4.156,7.735,7.735,0,0,1-2.545,6.025,9.667,9.667,0,0,1-6.742,2.288,17.316,17.316,0,0,1-3.087-.3,30.483,30.483,0,0,1-3.668-.934Zm28.661-5.537a8.148,8.148,0,0,0,1.949,5.551,6.231,6.231,0,0,0,9.572.014,8.15,8.15,0,0,0,1.936-5.564,8.209,8.209,0,0,0-1.936-5.605,6.221,6.221,0,0,0-9.572,0,8.218,8.218,0,0,0-1.949,5.605m-6.255,0a14.211,14.211,0,0,1,.975-5.293,13.322,13.322,0,0,1,2.87-4.427,12.452,12.452,0,0,1,4.17-2.856,12.664,12.664,0,0,1,4.968-.989,12.815,12.815,0,0,1,9.206,3.886,12.348,12.348,0,0,1,2.816,4.345,14.368,14.368,0,0,1,.962,5.334,14.8,14.8,0,0,1-.663,4.495A12.827,12.827,0,0,1,189,51.173a13.042,13.042,0,0,1-4.576,3.845A12.71,12.71,0,0,1,169.528,52.5a13.21,13.21,0,0,1-2.87-4.4,14.066,14.066,0,0,1-.975-5.266" transform="translate(-13.15 -5.867)" fill="#fff"/>
        <path id="Caminho_671" data-name="Caminho 671" d="M234.924,55.745V35.6h-8.082V30.266h22.229V35.6H241V55.745Zm20.077,0V30.266h15.691v5.253H260.9v4.6h8.38v5.225H260.9v5.036h9.923v5.361Zm42.293-17.41A12.258,12.258,0,0,0,293.95,35.8a8.161,8.161,0,0,0-3.561-.812,6.834,6.834,0,0,0-5.28,2.22,8.079,8.079,0,0,0-2.058,5.727,7.98,7.98,0,0,0,2.031,5.672,7,7,0,0,0,5.307,2.166,9.819,9.819,0,0,0,3.859-.812,15.167,15.167,0,0,0,3.832-2.423L297.7,54.3a13.13,13.13,0,0,1-3.574,1.692,14.326,14.326,0,0,1-4.034.582,13.554,13.554,0,0,1-4.319-.7,13.171,13.171,0,0,1-7.568-6.8,14.133,14.133,0,0,1-1.3-6.065,14.372,14.372,0,0,1,.961-5.307,12.985,12.985,0,0,1,2.816-4.373,12.692,12.692,0,0,1,4.292-2.91,13.5,13.5,0,0,1,5.145-1,13.671,13.671,0,0,1,4.1.6,13.383,13.383,0,0,1,3.723,1.814Zm7.757,17.41V30.266h6.011v9.355h9.815V30.266h5.97V55.745h-5.97v-10.7h-9.815v10.7Z" transform="translate(-45.541 -5.905)" fill="#fff"/>
      </g>
    </g>
  </g>
</svg>
